<svg width="24" height="24" viewBox="0 0 24 24" fill="none" xmlns="http://www.w3.org/2000/svg">
<g clip-path="url(#clip0_3756_14982)">
<path d="M11.916 4.62236C14.2807 4.62236 16.5485 5.56173 18.2206 7.23381C19.8927 8.90589 20.8321 11.1737 20.8321 13.5384C20.8321 15.9031 19.8927 18.1709 18.2206 19.843C16.5485 21.5151 14.2807 22.4544 11.916 22.4544C9.55136 22.4544 7.28353 21.5151 5.61145 19.843C3.93937 18.1709 3 15.9031 3 13.5384C3 11.1737 3.93937 8.90589 5.61145 7.23381C7.28353 5.56173 9.55136 4.62236 11.916 4.62236ZM11.916 7.7692C11.7259 7.76921 11.5423 7.83806 11.399 7.96301C11.2557 8.08797 11.1625 8.26058 11.1367 8.44892L11.1293 8.55591V13.2762L11.1367 13.3832C11.1626 13.5715 11.2558 13.744 11.3991 13.8689C11.5423 13.9938 11.726 14.0626 11.916 14.0626C12.1061 14.0626 12.2898 13.9938 12.433 13.8689C12.5763 13.744 12.6695 13.5715 12.6954 13.3832L12.7027 13.2762V8.55591L12.6954 8.44892C12.6695 8.26058 12.5764 8.08797 12.4331 7.96301C12.2898 7.83806 12.1061 7.76921 11.916 7.7692ZM19.437 4.75138L19.523 4.81537L20.7282 5.86432C20.8793 5.99508 20.9749 6.17842 20.9957 6.37711C21.0165 6.57581 20.961 6.77498 20.8403 6.93421C20.7197 7.09344 20.5429 7.20081 20.346 7.23451C20.1491 7.26822 19.9467 7.22574 19.78 7.11571L19.695 7.05172L18.4898 6.00278C18.3401 5.87173 18.2455 5.68881 18.2253 5.49086C18.205 5.29292 18.2605 5.09465 18.3806 4.93599C18.5007 4.77734 18.6765 4.67008 18.8725 4.63583C19.0685 4.60157 19.2702 4.64286 19.437 4.75138ZM14.2762 2C14.4755 2.00006 14.6674 2.07578 14.813 2.21186C14.9587 2.34794 15.0472 2.53423 15.0608 2.73309C15.0744 2.93195 15.012 3.12855 14.8862 3.28317C14.7604 3.4378 14.5806 3.53891 14.3832 3.56608L14.2762 3.57342H9.55591C9.35659 3.57336 9.16472 3.49764 9.01907 3.36156C8.87342 3.22548 8.78486 3.03919 8.77127 2.84033C8.75769 2.64147 8.82009 2.44487 8.94588 2.29024C9.07166 2.13562 9.25145 2.03451 9.44892 2.00734L9.55591 2H14.2762Z" fill="#D9D9D9"/>
</g>
<defs>
<clipPath id="clip0_3756_14982">
<rect width="24" height="24" fill="white"/>
</clipPath>
</defs>
</svg>
