<svg width="24" height="24" viewBox="0 0 24 24" fill="none" xmlns="http://www.w3.org/2000/svg">
<path d="M11.1447 22H12.8647C13.4286 22 13.8515 21.6617 13.9737 21.1071L14.4436 19.1241C14.7632 19.0113 15.0639 18.8891 15.3459 18.7575L17.0846 19.8289C17.5451 20.1203 18.0996 20.0733 18.485 19.688L19.6974 18.4756C20.0827 18.0902 20.1391 17.5169 19.8289 17.047L18.7669 15.3271C18.8985 15.0451 19.0207 14.7444 19.1147 14.453L21.1165 13.9831C21.6711 13.8609 22 13.438 22 12.8741V11.1823C22 10.6278 21.6711 10.1955 21.1165 10.0733L19.1335 9.59398C19.0301 9.26504 18.8985 8.97368 18.7857 8.71992L19.8477 6.96241C20.1485 6.48308 20.1109 5.94737 19.7068 5.55263L18.485 4.34023C18.0902 3.98308 17.5921 3.91729 17.1128 4.18045L15.3459 5.27068C15.0733 5.1391 14.7726 5.01692 14.453 4.90414L13.9737 2.89286C13.8515 2.33835 13.4286 2 12.8647 2H11.1447C10.5714 2 10.1485 2.33835 10.0263 2.89286L9.55639 4.89474C9.23684 4.99812 8.92669 5.1203 8.64474 5.26128L6.88722 4.18045C6.40789 3.91729 5.91917 3.97368 5.51504 4.34023L4.29323 5.55263C3.8891 5.94737 3.8515 6.48308 4.15226 6.96241L5.21429 8.71992C5.1015 8.97368 4.97932 9.26504 4.86654 9.59398L2.88346 10.0733C2.32895 10.1955 2 10.6278 2 11.1823V12.8741C2 13.438 2.32895 13.8609 2.88346 13.9831L4.88534 14.453C4.97932 14.7444 5.1015 15.0451 5.23308 15.3271L4.17105 17.047C3.8609 17.5169 3.91729 18.0902 4.31203 18.4756L5.51504 19.688C5.90038 20.0733 6.45489 20.1203 6.92481 19.8289L8.65414 18.7575C8.93609 18.8891 9.23684 19.0113 9.55639 19.1241L10.0263 21.1071C10.1485 21.6617 10.5714 22 11.1447 22ZM12 15.2895C10.1955 15.2895 8.71992 13.8045 8.71992 11.9906C8.71992 10.1955 10.1955 8.71992 12 8.71992C13.8139 8.71992 15.2895 10.1955 15.2895 11.9906C15.2895 13.8045 13.8139 15.2895 12 15.2895Z" fill="#4C4C4C"/>
</svg>
