<svg width="24" height="24" viewBox="0 0 24 24" fill="none" xmlns="http://www.w3.org/2000/svg">
<path d="M17.2167 21.44C16.1142 22.5088 14.9105 22.34 13.7517 21.8337C12.5255 21.3162 11.4005 21.2937 10.1067 21.8337C8.48671 22.5312 7.63171 22.3288 6.66421 21.44C1.17421 15.7813 1.98421 7.16375 8.21671 6.84875C9.73546 6.9275 10.793 7.68125 11.6817 7.74875C13.0092 7.47875 14.2805 6.7025 15.698 6.80375C17.3967 6.93875 18.6792 7.61375 19.523 8.82875C16.013 10.9325 16.8455 15.5563 20.063 16.85C19.4217 18.5375 18.5892 20.2138 17.2055 21.4513L17.2167 21.44ZM11.5692 6.78125C11.4005 4.2725 13.4367 2.2025 15.7767 2C16.103 4.9025 13.1442 7.0625 11.5692 6.78125Z" fill="white"/>
</svg>
