<svg width="24" height="24" viewBox="0 0 24 24" fill="none" xmlns="http://www.w3.org/2000/svg">
<path d="M1.88562 8.85451C1.96186 7.80917 2.8322 7 3.88032 7H14.2739V20.9996H3.15099C1.98911 20.9996 1.07177 20.0129 1.15628 18.8541L1.88562 8.85451Z" fill="#D9D9D9"/>
<path fill-rule="evenodd" clip-rule="evenodd" d="M14.2739 7H19.4215C20.5261 7 21.4215 7.89543 21.4215 9V19.0035C21.4215 20.108 20.5261 21.0035 19.4215 21.0035H14.274L14.2739 7ZM17.7667 9.89453V9.91821C18.4678 10.0441 18.9998 10.6572 18.9998 11.3945C18.9998 12.1319 18.4678 12.7449 17.7667 12.8709V15.9415C17.7667 16.4679 17.34 16.8945 16.8137 16.8945C16.5505 16.8945 16.3372 16.6812 16.3372 16.418V9.89453H17.7667Z" fill="#D9D9D9"/>
<path d="M5 6C5 6 7.2941 0.86582 11.5 2.23086C15.4634 3.51722 12.3667 7.07685 11.0667 5.46143C10.1357 2.81806 14.9667 2.23086 18 4.92309" stroke="#D9D9D9" stroke-width="1.2" stroke-linecap="round" stroke-linejoin="round"/>
</svg>
