<svg width="24" height="24" viewBox="0 0 24 24" fill="none" xmlns="http://www.w3.org/2000/svg">
<path d="M21 6.48031V18.5197C21 19.8895 19.9344 21 18.62 21H5.38C4.06563 21 3 19.8895 3 18.5197V6.48031C3 5.11054 4.06563 4 5.38 4H10.0237L10.8225 4.85586V5.34437C10.635 5.27402 10.4325 5.23559 10.2213 5.23559C9.23875 5.23559 8.4425 6.0654 8.4425 7.08931C8.4425 7.89632 8.9375 8.58284 9.62875 8.83686V9.45238C9.39937 9.52989 9.23313 9.7533 9.23313 10.0184V10.2672C9.23313 11.8109 10.4344 13.0621 11.9156 13.0621H12.085C13.5662 13.0621 14.7669 11.8109 14.7669 10.2672V10.0184C14.7669 9.7533 14.6012 9.52989 14.3719 9.45238V8.83686C15.0625 8.58284 15.5575 7.89632 15.5575 7.08931C15.5575 6.0654 14.7613 5.23559 13.7788 5.23559C13.5675 5.23559 13.365 5.27402 13.1775 5.34437V4.85586L13.9762 4H18.62C19.9344 4 21 5.11054 21 6.48031Z" fill="#D9D9D9"/>
</svg>
