<svg width="25" height="24" viewBox="0 0 25 24" fill="none" xmlns="http://www.w3.org/2000/svg">
<g clip-path="url(#clip0_874_29425)">
<path d="M12.3114 1C18.8364 1 24.125 5.122 24.125 10.2081C24.125 15.2931 18.8364 19.4151 12.3125 19.4151C11.6629 19.4154 11.0139 19.3741 10.3696 19.2914L5.41063 22.5347C4.847 22.8329 4.64788 22.8003 4.87963 22.0701L5.88312 17.9324C2.64312 16.2899 0.5 13.4436 0.5 10.2081C0.5 5.12313 5.7875 1 12.3125 1H12.3114ZM18.9579 10.0675L20.6116 8.4655C20.7071 8.3664 20.7603 8.23413 20.7601 8.09655C20.76 7.95897 20.7064 7.82683 20.6107 7.72796C20.5151 7.62909 20.3848 7.5712 20.2473 7.5665C20.1098 7.5618 19.9758 7.61065 19.8736 7.70275L17.7046 9.802V8.06725C17.7046 7.92642 17.6487 7.79136 17.5491 7.69178C17.4495 7.5922 17.3145 7.53625 17.1736 7.53625C17.0328 7.53625 16.8977 7.5922 16.7982 7.69178C16.6986 7.79136 16.6426 7.92642 16.6426 8.06725V10.9439C16.6228 11.0259 16.6228 11.1116 16.6426 11.1936V12.8125C16.6426 12.9533 16.6986 13.0884 16.7982 13.188C16.8977 13.2876 17.0328 13.3435 17.1736 13.3435C17.3145 13.3435 17.4495 13.2876 17.5491 13.188C17.6487 13.0884 17.7046 12.9533 17.7046 12.8125V11.2791L18.185 10.8145L19.7915 13.1016C19.8316 13.1587 19.8826 13.2074 19.9415 13.2448C20.0004 13.2822 20.0661 13.3076 20.1348 13.3196C20.2036 13.3316 20.274 13.33 20.3421 13.3148C20.4102 13.2996 20.4746 13.2711 20.5317 13.231C20.5889 13.1909 20.6375 13.1399 20.6749 13.081C20.7123 13.0221 20.7377 12.9564 20.7497 12.8877C20.7618 12.8189 20.7601 12.7485 20.7449 12.6804C20.7297 12.6123 20.7012 12.5478 20.6611 12.4907L18.9579 10.0664V10.0675ZM15.6301 12.232H13.9876V8.08413C13.9813 7.94767 13.9227 7.81889 13.8239 7.72454C13.7251 7.6302 13.5938 7.57756 13.4572 7.57756C13.3206 7.57756 13.1892 7.6302 13.0905 7.72454C12.9917 7.81889 12.933 7.94767 12.9267 8.08413V12.763C12.9267 13.0555 13.163 13.294 13.4566 13.294H15.6301C15.771 13.294 15.906 13.2381 16.0056 13.1385C16.1052 13.0389 16.1611 12.9038 16.1611 12.763C16.1611 12.6222 16.1052 12.4871 16.0056 12.3875C15.906 12.2879 15.771 12.232 15.6301 12.232ZM9.041 11.0046L9.824 9.08313L10.5417 11.0035L9.041 11.0046ZM11.8794 11.5525L11.8816 11.5345C11.8814 11.4007 11.8303 11.272 11.7387 11.1745L10.562 8.0245C10.5127 7.87439 10.4187 7.74291 10.2927 7.64762C10.1666 7.55233 10.0145 7.49778 9.85662 7.49125C9.69759 7.49055 9.54212 7.53829 9.41089 7.62812C9.27966 7.71796 9.17889 7.84562 9.122 7.99412L7.25225 12.5785C7.19899 12.7089 7.19971 12.8551 7.25425 12.9849C7.30879 13.1148 7.41268 13.2177 7.54306 13.2709C7.67345 13.3242 7.81965 13.3235 7.94951 13.2689C8.07937 13.2144 8.18224 13.1105 8.2355 12.9801L8.609 12.0655H10.9377L11.273 12.9655C11.2959 13.0328 11.332 13.0948 11.3793 13.1478C11.4265 13.2009 11.484 13.2439 11.5482 13.2744C11.6124 13.3048 11.682 13.3221 11.753 13.3251C11.824 13.3281 11.8949 13.3169 11.9615 13.2921C12.028 13.2672 12.0889 13.2293 12.1406 13.1804C12.1922 13.1316 12.2335 13.0729 12.262 13.0079C12.2906 12.9428 12.3058 12.8727 12.3067 12.8016C12.3076 12.7306 12.2943 12.6601 12.2675 12.5942L11.8794 11.5525ZM8.14212 8.08975C8.14213 7.94911 8.08634 7.81422 7.987 7.71467C7.88766 7.61512 7.75288 7.55905 7.61225 7.55875H3.96163C3.8208 7.55875 3.68573 7.61469 3.58615 7.71428C3.48657 7.81386 3.43062 7.94892 3.43062 8.08975C3.43062 8.23058 3.48657 8.36564 3.58615 8.46522C3.68573 8.56481 3.8208 8.62075 3.96163 8.62075H5.26662V12.8238C5.26662 12.9646 5.32257 13.0996 5.42215 13.1992C5.52173 13.2988 5.6568 13.3548 5.79763 13.3548C5.93846 13.3548 6.07352 13.2988 6.1731 13.1992C6.27268 13.0996 6.32863 12.9646 6.32863 12.8238V8.62075H7.61112C7.75196 8.62075 7.88702 8.56481 7.9866 8.46522C8.08618 8.36564 8.14212 8.23058 8.14212 8.08975Z" fill="black"/>
<path d="M8.14212 8.08975C8.14213 7.94911 8.08634 7.81422 7.987 7.71467C7.88766 7.61512 7.75288 7.55905 7.61225 7.55875H3.96163C3.8208 7.55875 3.68573 7.61469 3.58615 7.71428C3.48657 7.81386 3.43062 7.94892 3.43062 8.08975C3.43062 8.23058 3.48657 8.36564 3.58615 8.46522C3.68573 8.56481 3.8208 8.62075 3.96163 8.62075H5.26662V12.8238C5.26662 12.9646 5.32257 13.0996 5.42215 13.1992C5.52173 13.2988 5.6568 13.3548 5.79763 13.3548C5.93846 13.3548 6.07352 13.2988 6.1731 13.1992C6.27268 13.0996 6.32863 12.9646 6.32863 12.8238V8.62075H7.61112C7.75196 8.62075 7.88702 8.56481 7.9866 8.46522C8.08618 8.36564 8.14212 8.23058 8.14212 8.08975Z" fill="black"/>
<path fill-rule="evenodd" clip-rule="evenodd" d="M11.8794 11.5525L11.8816 11.5345C11.8814 11.4007 11.8303 11.272 11.7387 11.1745L10.562 8.0245C10.5127 7.87439 10.4187 7.74291 10.2927 7.64762C10.1666 7.55233 10.0145 7.49778 9.85662 7.49125C9.69759 7.49055 9.54212 7.53829 9.41089 7.62812C9.27966 7.71796 9.17889 7.84562 9.122 7.99412L7.25225 12.5785C7.19899 12.7089 7.19971 12.8551 7.25425 12.9849C7.30879 13.1148 7.41268 13.2177 7.54306 13.2709C7.67345 13.3242 7.81965 13.3235 7.94951 13.2689C8.07937 13.2144 8.18224 13.1105 8.2355 12.9801L8.609 12.0655H10.9377L11.273 12.9655C11.2959 13.0328 11.332 13.0948 11.3793 13.1478C11.4265 13.2009 11.484 13.2439 11.5482 13.2744C11.6124 13.3048 11.682 13.3221 11.753 13.3251C11.824 13.3281 11.8949 13.3169 11.9615 13.2921C12.028 13.2672 12.0889 13.2293 12.1406 13.1804C12.1922 13.1316 12.2335 13.0729 12.262 13.0079C12.2906 12.9428 12.3058 12.8727 12.3067 12.8016C12.3076 12.7306 12.2943 12.6601 12.2675 12.5942L11.8794 11.5525ZM9.824 9.08313L9.041 11.0046L10.5417 11.0035L9.824 9.08313Z" fill="black"/>
<path d="M15.6301 12.232H13.9876V8.08413C13.9813 7.94767 13.9227 7.81889 13.8239 7.72454C13.7251 7.6302 13.5938 7.57756 13.4572 7.57756C13.3206 7.57756 13.1892 7.6302 13.0905 7.72454C12.9917 7.81889 12.933 7.94767 12.9267 8.08413V12.763C12.9267 13.0555 13.163 13.294 13.4566 13.294H15.6301C15.771 13.294 15.906 13.2381 16.0056 13.1385C16.1052 13.0389 16.1611 12.9038 16.1611 12.763C16.1611 12.6222 16.1052 12.4871 16.0056 12.3875C15.906 12.2879 15.771 12.232 15.6301 12.232Z" fill="black"/>
<path d="M18.9579 10.0675L20.6116 8.4655C20.7071 8.3664 20.7603 8.23413 20.7601 8.09655C20.76 7.95897 20.7064 7.82683 20.6107 7.72796C20.5151 7.62909 20.3848 7.5712 20.2473 7.5665C20.1098 7.5618 19.9758 7.61065 19.8736 7.70275L17.7046 9.802V8.06725C17.7046 7.92642 17.6487 7.79136 17.5491 7.69178C17.4495 7.5922 17.3145 7.53625 17.1736 7.53625C17.0328 7.53625 16.8977 7.5922 16.7982 7.69178C16.6986 7.79136 16.6426 7.92642 16.6426 8.06725V10.9439C16.6228 11.0259 16.6228 11.1116 16.6426 11.1936V12.8125C16.6426 12.9533 16.6986 13.0884 16.7982 13.188C16.8977 13.2876 17.0328 13.3435 17.1736 13.3435C17.3145 13.3435 17.4495 13.2876 17.5491 13.188C17.6487 13.0884 17.7046 12.9533 17.7046 12.8125V11.2791L18.185 10.8145L19.7915 13.1016C19.8316 13.1587 19.8826 13.2074 19.9415 13.2448C20.0004 13.2822 20.0661 13.3076 20.1348 13.3196C20.2036 13.3316 20.274 13.33 20.3421 13.3148C20.4102 13.2996 20.4746 13.2711 20.5317 13.231C20.5889 13.1909 20.6375 13.1399 20.6749 13.081C20.7123 13.0221 20.7377 12.9564 20.7497 12.8877C20.7618 12.8189 20.7601 12.7485 20.7449 12.6804C20.7297 12.6123 20.7012 12.5478 20.6611 12.4907L18.9579 10.0675Z" fill="black"/>
</g>
<defs>
<clipPath id="clip0_874_29425">
<rect width="24" height="24" fill="white" transform="translate(0.5)"/>
</clipPath>
</defs>
</svg>
