<svg width="24" height="24" viewBox="0 0 24 24" fill="none" xmlns="http://www.w3.org/2000/svg">
<path d="M9.5 17C14.1944 17 18 13.1944 18 8.5C18 7.25229 17.7312 6.06737 17.2483 5H19.62C20.9344 5 22 6.11054 22 7.48031V19.5197C22 20.8895 20.9344 22 19.62 22H6.38C5.06563 22 4 20.8895 4 19.5197V14.981C5.48244 16.2403 7.4025 17 9.5 17Z" fill="#191919"/>
<path d="M9.49638 16C13.6071 16 17 12.6071 17 8.49638C17 4.39294 13.5998 1 9.48913 1C5.38569 1 2 4.39294 2 8.49638C2 12.6071 5.39294 16 9.49638 16ZM6.53842 9.8811C6.53842 9.08362 7.20541 8.26438 8.25665 7.88014L8.37264 6.15466C7.83615 5.84292 7.40116 5.50942 7.20541 5.26293C7.10391 5.12518 7.04592 4.98743 7.04592 4.85694C7.04592 4.61044 7.23441 4.43644 7.50991 4.43644H11.4828C11.7583 4.43644 11.9541 4.61044 11.9541 4.85694C11.9541 4.98743 11.8961 5.11793 11.7946 5.25568C11.5988 5.50217 11.1638 5.84292 10.6201 6.15466L10.7434 7.88014C11.7873 8.26438 12.4543 9.08362 12.4543 9.8811C12.4543 10.2218 12.2296 10.4393 11.8888 10.4393H10.0039V11.7588C10.0039 12.4911 9.64862 13.2305 9.49638 13.2305C9.34413 13.2305 8.98888 12.4911 8.98888 11.7588V10.4393H7.10391C6.76317 10.4393 6.53842 10.2218 6.53842 9.8811Z" fill="#191919"/>
</svg>
