<svg width="24" height="25" viewBox="0 0 24 25" fill="none" xmlns="http://www.w3.org/2000/svg">
<path d="M21 6.82943V18.8688C21 20.2386 19.9344 21.3491 18.62 21.3491H5.38C4.06563 21.3491 3 20.2386 3 18.8688V6.82943C3 5.45966 4.06563 4.34912 5.38 4.34912H10.0237L10.8225 5.20498V5.69349C10.635 5.62314 10.4325 5.58471 10.2213 5.58471C9.23875 5.58471 8.4425 6.41452 8.4425 7.43843C8.4425 8.24544 8.9375 8.93196 9.62875 9.18598V9.8015C9.39937 9.87901 9.23313 10.1024 9.23313 10.3675V10.6163C9.23313 12.16 10.4344 13.4112 11.9156 13.4112H12.085C13.5662 13.4112 14.7669 12.16 14.7669 10.6163V10.3675C14.7669 10.1024 14.6012 9.87901 14.3719 9.8015V9.18598C15.0625 8.93196 15.5575 8.24544 15.5575 7.43843C15.5575 6.41452 14.7613 5.58471 13.7788 5.58471C13.5675 5.58471 13.365 5.62314 13.1775 5.69349V5.20498L13.9762 4.34912H18.62C19.9344 4.34912 21 5.45966 21 6.82943Z" fill="#191919"/>
</svg>
