<svg width="24" height="24" viewBox="0 0 24 24" fill="none" xmlns="http://www.w3.org/2000/svg">
<path d="M5.6 21C5.6 21 4 21 4 19.5C4 18 5.6 13.5 12 13.5C18.4 13.5 20 18 20 19.5C20 21 18.4 21 18.4 21H5.6ZM12 12C13.273 12 14.4939 11.5259 15.3941 10.682C16.2943 9.83807 16.8 8.69347 16.8 7.5C16.8 6.30653 16.2943 5.16193 15.3941 4.31802C14.4939 3.47411 13.273 3 12 3C10.727 3 9.50606 3.47411 8.60589 4.31802C7.70571 5.16193 7.2 6.30653 7.2 7.5C7.2 8.69347 7.70571 9.83807 8.60589 10.682C9.50606 11.5259 10.727 12 12 12Z" fill="#D9D9D9"/>
</svg>
