<svg width="28" height="28" viewBox="0 0 28 28" fill="none" xmlns="http://www.w3.org/2000/svg">
<path d="M14.3695 25.75C20.604 25.75 25.75 20.604 25.75 14.3695C25.75 8.14596 20.593 3 14.3585 3C8.13497 3 3 8.14596 3 14.3695C3 20.604 8.14596 25.75 14.3695 25.75ZM9.88328 16.4697C9.88328 15.2601 10.8949 14.0176 12.4892 13.4349L12.6652 10.8179C11.8515 10.3451 11.1918 9.83929 10.8949 9.46544C10.7409 9.25652 10.653 9.04761 10.653 8.84969C10.653 8.47583 10.9389 8.21194 11.3567 8.21194H17.3823C17.8001 8.21194 18.097 8.47583 18.097 8.84969C18.097 9.04761 18.0091 9.24553 17.8551 9.45445C17.5582 9.8283 16.8985 10.3451 16.0738 10.8179L16.2608 13.4349C17.8441 14.0176 18.8557 15.2601 18.8557 16.4697C18.8557 16.9865 18.5149 17.3163 17.9981 17.3163H15.1392V19.3175C15.1392 20.4281 14.6004 21.5497 14.3695 21.5497C14.1386 21.5497 13.5998 20.4281 13.5998 19.3175V17.3163H10.7409C10.2241 17.3163 9.88328 16.9865 9.88328 16.4697Z" fill="#CCCCCC"/>
</svg>
