<svg width="24" height="24" viewBox="0 0 24 24" fill="none" xmlns="http://www.w3.org/2000/svg">
<path d="M15.2317 14.002C14.8552 13.5979 14.2225 13.5755 13.8184 13.9519C13.4143 14.3284 13.3918 14.9611 13.7683 15.3652L15.2317 14.002ZM18.7683 20.7325C19.1448 21.1367 19.7775 21.1591 20.1816 20.7826C20.5857 20.4062 20.6082 19.7734 20.2317 19.3693L18.7683 20.7325ZM10.3333 15.4727C7.72954 15.4727 5.5 13.1848 5.5 10.2108H3.5C3.5 14.1535 6.4938 17.4727 10.3333 17.4727V15.4727ZM5.5 10.2108C5.5 7.23685 7.72954 4.94897 10.3333 4.94897V2.94897C6.4938 2.94897 3.5 6.26817 3.5 10.2108H5.5ZM10.3333 4.94897C12.9371 4.94897 15.1667 7.23685 15.1667 10.2108H17.1667C17.1667 6.26817 14.1729 2.94897 10.3333 2.94897V4.94897ZM15.1667 10.2108C15.1667 13.1848 12.9371 15.4727 10.3333 15.4727V17.4727C14.1729 17.4727 17.1667 14.1535 17.1667 10.2108H15.1667ZM13.7683 15.3652L18.7683 20.7325L20.2317 19.3693L15.2317 14.002L13.7683 15.3652Z" fill="#D9D9D9"/>
</svg>
