<svg width="24" height="24" viewBox="0 0 24 24" fill="none" xmlns="http://www.w3.org/2000/svg">
<path d="M7.98424 19.87H16.0149C17.6346 19.87 18.4708 19.0187 18.4708 17.3915V10.649H12.8207C11.879 10.649 11.427 10.197 11.427 9.2553V3.54492H7.98424C6.37207 3.54492 5.52832 4.39621 5.52832 6.03097V17.3915C5.52832 19.0187 6.37207 19.87 7.98424 19.87ZM12.9639 9.54911H18.3955C18.3503 9.20257 18.1017 8.87863 17.71 8.47935L13.5891 4.3058C13.2125 3.9216 12.8735 3.66546 12.5269 3.62026V9.11217C12.5345 9.40597 12.6776 9.54911 12.9639 9.54911ZM9.07659 13.9863C8.75265 13.9863 8.51911 13.7528 8.51911 13.4515C8.51911 13.1501 8.75265 12.9166 9.07659 12.9166H14.9452C15.254 12.9166 15.4951 13.1501 15.4951 13.4515C15.4951 13.7528 15.254 13.9863 14.9452 13.9863H9.07659ZM9.07659 16.8114C8.75265 16.8114 8.51911 16.5778 8.51911 16.2765C8.51911 15.9752 8.75265 15.7416 9.07659 15.7416H14.9452C15.254 15.7416 15.4951 15.9752 15.4951 16.2765C15.4951 16.5778 15.254 16.8114 14.9452 16.8114H9.07659Z" fill="#4C4C4C"/>
</svg>
