<svg width="24" height="24" viewBox="0 0 24 24" fill="none" xmlns="http://www.w3.org/2000/svg">
<path d="M15 13L11 17L9 15M19.0002 9H16.2002C15.0801 9 14.5196 8.99997 14.0918 8.78198C13.7155 8.59024 13.4097 8.28429 13.218 7.90797C13 7.48014 13 6.9201 13 5.8V3M19 17.8V9.3255C19 8.83632 18.9996 8.59169 18.9443 8.36151C18.8953 8.15744 18.8147 7.96238 18.705 7.78343C18.5814 7.5816 18.4089 7.40864 18.063 7.06274L14.9375 3.93726C14.5916 3.59135 14.4186 3.41842 14.2168 3.29474C14.0379 3.18508 13.8428 3.10425 13.6388 3.05526C13.4086 3 13.1639 3 12.6747 3H8.2002C7.08009 3 6.51962 3 6.0918 3.21799C5.71547 3.40973 5.40973 3.71572 5.21799 4.09204C5 4.51986 5 5.07991 5 6.20001V17.8C5 18.9201 5 19.4801 5.21799 19.908C5.40973 20.2843 5.71547 20.5902 6.0918 20.782C6.51962 21 7.08009 21 8.2002 21H15.8002C16.9203 21 17.48 21 17.9078 20.782C18.2841 20.5902 18.5905 20.2843 18.7822 19.908C19.0002 19.4801 19 18.9201 19 17.8Z" stroke="#CCCCCC" stroke-width="2" stroke-linecap="round" stroke-linejoin="round"/>
</svg>
