<svg width="24" height="24" viewBox="0 0 24 24" fill="none" xmlns="http://www.w3.org/2000/svg">
<path d="M5.97321 16.6832H18.0193C18.7952 16.6832 19.2698 16.2613 19.2698 15.6285C19.2698 14.8299 18.5466 14.1444 17.8686 13.4965C17.3337 12.9767 17.2132 11.8919 17.1152 10.8899C16.9947 8.13267 16.1886 6.18903 14.2374 5.48842C13.9286 4.494 13.1074 3.72559 11.9925 3.72559C10.885 3.72559 10.0639 4.494 9.74749 5.48842C7.80385 6.18903 6.99023 8.13267 6.87723 10.8899C6.7793 11.8919 6.65123 12.9767 6.12388 13.4965C5.44587 14.1444 4.72266 14.8299 4.72266 15.6285C4.72266 16.2613 5.19727 16.6832 5.97321 16.6832ZM11.9925 19.787C13.3334 19.787 14.3052 18.8302 14.4032 17.7379H9.58929C9.68722 18.8302 10.659 19.787 11.9925 19.787Z" fill="#F05A39"/>
</svg>
