<svg width="28" height="28" viewBox="0 0 28 28" fill="none" xmlns="http://www.w3.org/2000/svg">
<path d="M14 2.625C11.7502 2.625 9.551 3.29213 7.68039 4.54203C5.80978 5.79193 4.35182 7.56847 3.49088 9.64698C2.62993 11.7255 2.40467 14.0126 2.84357 16.2192C3.28248 18.4257 4.36584 20.4525 5.95667 22.0433C7.54749 23.6342 9.57432 24.7175 11.7809 25.1564C13.9874 25.5953 16.2745 25.3701 18.353 24.5091C20.4315 23.6482 22.2081 22.1902 23.458 20.3196C24.7079 18.449 25.375 16.2498 25.375 14C25.3718 10.9841 24.1724 8.09271 22.0398 5.96018C19.9073 3.82764 17.0159 2.62818 14 2.625ZM18.375 14.875H9.625C9.39294 14.875 9.17038 14.7828 9.00629 14.6187C8.84219 14.4546 8.75 14.2321 8.75 14C8.75 13.7679 8.84219 13.5454 9.00629 13.3813C9.17038 13.2172 9.39294 13.125 9.625 13.125H18.375C18.6071 13.125 18.8296 13.2172 18.9937 13.3813C19.1578 13.5454 19.25 13.7679 19.25 14C19.25 14.2321 19.1578 14.4546 18.9937 14.6187C18.8296 14.7828 18.6071 14.875 18.375 14.875Z" fill="#F05A39"/>
</svg>
