<svg width="20" height="20" viewBox="0 0 20 20" fill="none" xmlns="http://www.w3.org/2000/svg">
<path d="M9.98633 3.10449C9.0572 3.10449 8.37291 3.74484 8.11551 4.57352C7.79534 4.68652 7.50656 4.83719 7.26172 5.03181L15.8185 13.6011C15.9692 13.463 16.0445 13.2621 16.0445 13.0236C16.0445 12.3581 15.4418 11.7868 14.8768 11.2469C14.4374 10.8138 14.3306 9.90974 14.249 9.07478C14.1549 6.77706 13.4768 5.15737 11.8571 4.57352C11.5935 3.74484 10.9092 3.10449 9.98633 3.10449ZM15.5485 15.8486C15.7432 16.0495 16.0696 16.0495 16.258 15.8486C16.4463 15.654 16.4526 15.3401 16.258 15.1455L4.84473 3.73856C4.65011 3.54395 4.32994 3.54395 4.13532 3.73856C3.94071 3.9269 3.94071 4.25963 4.13532 4.44796L15.5485 15.8486ZM4.96401 13.9025H12.4912L5.92453 7.32952C5.80525 7.85059 5.73619 8.42815 5.71736 9.07478C5.63574 9.90974 5.5353 10.8138 5.08956 11.2469C4.52455 11.7868 3.92188 12.3581 3.92188 13.0236C3.92188 13.5509 4.31738 13.9025 4.96401 13.9025ZM9.98633 16.489C11.0975 16.489 11.9074 15.6917 11.989 14.7814H7.9774C8.05901 15.6917 8.87514 16.489 9.98633 16.489Z" fill="#4C4C4C"/>
</svg>
