<svg width="24" height="24" viewBox="0 0 24 24" fill="none" xmlns="http://www.w3.org/2000/svg">
<g clip-path="url(#clip0_3756_12648)">
<path fill-rule="evenodd" clip-rule="evenodd" d="M13 4.062V4.5C13 4.76522 12.8946 5.01957 12.7071 5.20711C12.5196 5.39464 12.2652 5.5 12 5.5C11.7348 5.5 11.4804 5.39464 11.2929 5.20711C11.1054 5.01957 11 4.76522 11 4.5V4.062C9.57596 4.23938 8.22635 4.79843 7.094 5.68L7.404 5.99C7.49951 6.08225 7.57569 6.19259 7.6281 6.3146C7.68051 6.4366 7.7081 6.56782 7.70925 6.7006C7.7104 6.83338 7.6851 6.96506 7.63482 7.08795C7.58454 7.21085 7.51029 7.3225 7.4164 7.4164C7.3225 7.51029 7.21085 7.58454 7.08795 7.63482C6.96506 7.6851 6.83338 7.7104 6.7006 7.70925C6.56782 7.7081 6.4366 7.68051 6.3146 7.6281C6.19259 7.57569 6.08225 7.49951 5.99 7.404L5.68 7.094C4.79843 8.22635 4.23938 9.57596 4.062 11H4.5C4.76522 11 5.01957 11.1054 5.20711 11.2929C5.39464 11.4804 5.5 11.7348 5.5 12C5.5 12.2652 5.39464 12.5196 5.20711 12.7071C5.01957 12.8946 4.76522 13 4.5 13H4.062C4.28459 14.7624 5.08714 16.4007 6.34324 17.6568C7.59934 18.9129 9.23761 19.7154 11 19.938V19.5C11 19.2348 11.1054 18.9804 11.2929 18.7929C11.4804 18.6054 11.7348 18.5 12 18.5C12.2652 18.5 12.5196 18.6054 12.7071 18.7929C12.8946 18.9804 13 19.2348 13 19.5V19.938C14.424 19.7606 15.7737 19.2016 16.906 18.32L16.596 18.01C16.4138 17.8214 16.3131 17.5688 16.3153 17.3066C16.3176 17.0444 16.4228 16.7936 16.6082 16.6082C16.7936 16.4228 17.0444 16.3176 17.3066 16.3153C17.5688 16.3131 17.8214 16.4138 18.01 16.596L18.32 16.906C19.2016 15.7737 19.7606 14.424 19.938 13H19.5C19.2348 13 18.9804 12.8946 18.7929 12.7071C18.6054 12.5196 18.5 12.2652 18.5 12C18.5 11.7348 18.6054 11.4804 18.7929 11.2929C18.9804 11.1054 19.2348 11 19.5 11H19.938C19.7154 9.23761 18.9129 7.59934 17.6568 6.34324C16.4007 5.08714 14.7624 4.28459 13 4.062ZM2 12C2 17.523 6.477 22 12 22C17.523 22 22 17.523 22 12C22 6.477 17.523 2 12 2C6.477 2 2 6.477 2 12ZM16.466 6.844L10.773 10.466C10.6494 10.5446 10.5446 10.6494 10.466 10.773L6.844 16.466C6.557 16.916 7.084 17.443 7.534 17.156L13.227 13.533C13.3501 13.4546 13.4546 13.3501 13.533 13.227L17.156 7.534C17.443 7.083 16.916 6.557 16.466 6.844Z" fill="#4C4C4C"/>
</g>
<defs>
<clipPath id="clip0_3756_12648">
<rect width="24" height="24" fill="white"/>
</clipPath>
</defs>
</svg>
